<svg width="400" height="35" viewBox="0 0 400 35" fill="none" xmlns="http://www.w3.org/2000/svg">
<path fill-rule="evenodd" clip-rule="evenodd" d="M368.089 13.9032C366.847 13.9032 365.63 14.3708 364.681 15.2541V14.215H362.101V30.8679H364.657V25.3082C365.606 26.1656 366.823 26.6332 368.064 26.6592C371.132 26.6592 373.639 23.8014 373.639 20.2942C373.639 16.7869 371.18 13.9032 368.089 13.9032ZM384.057 15.2022V14.215H386.613V26.4254H384.057V25.3342C383.108 26.1656 381.915 26.6332 380.674 26.6332C377.582 26.6332 375.1 23.7754 375.1 20.2682C375.1 16.761 377.607 13.9032 380.674 13.9032C381.915 13.9032 383.108 14.3708 384.057 15.2022ZM377.607 20.2681C377.607 22.4764 379.116 24.243 380.966 24.243C382.816 24.243 384.325 22.5024 384.325 20.2941C384.325 18.0858 382.816 16.3192 380.966 16.3192C379.116 16.3192 377.607 18.0598 377.607 20.2681ZM364.437 20.2682C364.437 22.4765 365.947 24.2431 367.797 24.2431C369.647 24.2431 371.156 22.4765 371.156 20.2682C371.156 18.0599 369.647 16.2933 367.797 16.2933C365.947 16.2933 364.437 18.0599 364.437 20.2682ZM397.493 14.2152L394.207 22.5287L390.702 14.2152H388.17L392.99 25.6462L390.921 30.8681H393.428L400 14.2152H397.493ZM345.963 23.9569L345.841 15.9032H348.226V26.0612H344.794L342.409 17.7218H342.36L342.482 26.0612H340.121V15.9032H343.699L345.914 23.9569H345.963ZM300.566 15.9034L298.789 26.1654H301.393L302.708 16.8387H302.756L304.046 26.1654H306.627L304.85 15.9034H300.566ZM313.905 23.7493L315.097 15.9034H318.992L319.211 26.1654H316.801L316.753 16.9426H316.704L315.097 26.1654H312.663L311.032 16.9426H310.984L310.935 26.1654H308.525L308.744 15.9034H312.688L313.856 23.7493H313.905ZM294.748 23.2559C294.821 23.5156 294.821 23.7754 294.772 24.0352C294.699 24.373 294.48 24.7107 293.823 24.7107C293.214 24.7107 292.849 24.347 292.849 23.7754V22.7622H290.269V23.5416C290.269 25.8278 291.949 26.5293 293.774 26.5293C295.527 26.5293 296.939 25.9058 297.182 24.1911C297.279 23.6196 297.279 23.074 297.182 22.5024C296.945 21.2674 295.646 20.5352 294.529 19.9056C293.696 19.4359 292.964 19.0233 292.849 18.5016C292.825 18.3197 292.825 18.1379 292.849 17.956C292.922 17.6183 293.117 17.2546 293.726 17.2546C294.188 17.2026 294.578 17.5663 294.626 18.034V18.1898V18.8133H297.036V18.0859C297.036 15.8517 295.162 15.488 293.799 15.488C292.095 15.488 290.683 16.0855 290.44 17.7742C290.342 18.2418 290.342 18.7094 290.44 19.1771C290.665 20.4241 291.9 21.1498 293 21.7964C293.802 22.2678 294.532 22.6972 294.748 23.2559ZM326.027 24.009C326.075 23.7492 326.075 23.4894 326.002 23.2556C325.793 22.6866 325.05 22.2518 324.237 21.7762C323.157 21.1444 321.954 20.4406 321.718 19.2547C321.621 18.7871 321.621 18.3195 321.694 17.8778C321.962 16.2151 323.325 15.6176 325.029 15.6176C326.392 15.6176 328.242 15.9813 328.242 18.1896V18.917H325.881V18.2935V18.1636C325.856 17.696 325.442 17.3322 325.004 17.3842C324.396 17.3842 324.201 17.7219 324.128 18.0597C324.104 18.2415 324.104 18.3974 324.128 18.5793C324.233 19.0922 324.96 19.5046 325.79 19.9747C326.893 20.5998 328.176 21.327 328.412 22.5282C328.509 23.0737 328.509 23.6453 328.412 24.1909C328.193 25.8795 326.781 26.503 325.053 26.503C323.276 26.503 321.597 25.8276 321.597 23.5674V22.788H324.152V23.7752C324.152 24.3208 324.518 24.6845 325.102 24.6845C325.735 24.6845 325.954 24.3467 326.027 24.009ZM334.085 24.6066C334.523 24.6585 334.913 24.3208 335.01 23.8792C335.034 23.7493 335.034 23.6194 335.034 23.4895V15.9034H337.468V23.2556C337.468 23.3591 337.461 23.5298 337.454 23.6769L337.454 23.6774L337.454 23.6776C337.449 23.7888 337.444 23.8864 337.444 23.9311C337.274 25.8536 335.862 26.4771 334.085 26.4771C332.308 26.4771 330.896 25.8536 330.726 23.9311C330.726 23.8864 330.721 23.7888 330.716 23.6776L330.716 23.6774L330.716 23.6769C330.709 23.5298 330.702 23.3591 330.702 23.2556V15.9034H333.136V23.4895C333.136 23.6194 333.136 23.7493 333.16 23.8792C333.257 24.3468 333.647 24.6585 334.085 24.6066ZM355.115 23.7757C355.09 24.0355 354.847 24.5032 354.141 24.5032C353.435 24.5032 353.192 24.0355 353.192 23.7757C353.167 23.6458 353.167 23.5159 353.167 23.386V18.6837C353.167 18.5019 353.192 18.346 353.216 18.1901C353.313 17.7225 353.703 17.3848 354.165 17.4367C354.92 17.4367 355.09 17.9563 355.139 18.1901C355.163 18.32 355.163 18.4499 355.163 18.5798V19.1514H357.598V18.8136C357.598 18.5798 357.598 18.372 357.573 18.1382C357.379 16.1897 355.894 15.5922 354.19 15.5922C352.486 15.5922 351.025 16.2157 350.806 18.1382C350.804 18.1596 350.802 18.1808 350.8 18.2019C350.778 18.4103 350.758 18.6013 350.758 18.8136V23.1522C350.758 23.3341 350.758 23.49 350.782 23.8277C350.952 25.6982 352.462 26.3737 354.165 26.3737C355.869 26.3737 357.403 25.6982 357.549 23.8277C357.573 23.4901 357.573 23.3342 357.573 23.1524V23.1522V20.3984H354.165V21.9052H355.139V23.386C355.139 23.5159 355.139 23.6458 355.115 23.7757Z" fill="black"/>
<path fill-rule="evenodd" clip-rule="evenodd" d="M230.762 6.12816C230.762 6.18429 230.764 6.24016 230.766 6.29604H241.178V5.70585C241.163 5.53847 241.139 5.37334 241.106 5.21095C240.821 3.77538 239.878 2.55909 238.584 1.8529L239.38 0.293865C239.429 0.19708 239.395 0.0763482 239.304 0.0239639C239.213 -0.0284204 239.1 0.00749988 239.05 0.104036L238.244 1.68328C237.559 1.37047 236.791 1.19511 235.979 1.19511C235.162 1.19511 234.388 1.37297 233.699 1.69026L232.89 0.104036C232.84 0.00749449 232.726 -0.0284204 232.635 0.0239639C232.544 0.0763482 232.511 0.19708 232.56 0.293865L233.36 1.86139C232.127 2.53963 231.214 3.68234 230.891 5.03608C230.807 5.38731 230.762 5.75274 230.762 6.12816ZM233.596 4.33724C233.326 4.33724 233.107 4.10426 233.107 3.81689C233.107 3.52953 233.326 3.29655 233.596 3.29655C233.866 3.29655 234.086 3.52953 234.086 3.81689C234.086 4.10426 233.866 4.33724 233.596 4.33724ZM230.752 6.72439H230.81H241.187V14.7952C241.187 15.4685 240.668 16.0195 240.034 16.0195H239.065V18.8325C239.065 19.5083 238.549 20.0563 237.912 20.0563C237.276 20.0563 236.759 19.5083 236.759 18.8325V16.0195H235.206V18.8325C235.205 19.5083 234.689 20.0563 234.053 20.0563C233.416 20.0563 232.9 19.5083 232.9 18.8325V16.0195H231.905C231.271 16.0195 230.752 15.4685 230.752 14.7952V6.72439ZM237.853 3.81689C237.853 4.10426 238.072 4.33724 238.343 4.33724C238.613 4.33724 238.832 4.10426 238.832 3.81689C238.832 3.52953 238.613 3.29655 238.343 3.29655C238.072 3.29655 237.853 3.52953 237.853 3.81689ZM243.9 7.73432C243.9 7.05857 243.384 6.51053 242.747 6.51053C242.111 6.51053 241.595 7.05857 241.594 7.73432V12.8769C241.594 13.5529 242.111 14.1009 242.747 14.1009C243.384 14.1009 243.9 13.5529 243.9 12.8769V7.73432ZM230.339 12.8769V7.73432C230.339 7.05857 229.823 6.51053 229.186 6.51053C228.55 6.51053 228.033 7.05857 228.033 7.73432V12.8769C228.034 13.5529 228.55 14.1009 229.186 14.1009C229.823 14.1009 230.339 13.5529 230.339 12.8769Z" fill="black"/>
<path fill-rule="evenodd" clip-rule="evenodd" d="M224.361 34.9251V31.0544C225.101 31.8399 226.123 32.3166 227.285 32.3166C229.794 32.3166 231.784 30.1382 231.784 27.4551C231.784 24.7624 229.794 22.584 227.285 22.584C226.123 22.584 225.101 23.0609 224.361 23.837V22.7711H223.041V34.9251H224.361ZM241.417 32.1202V22.7711H240.096V23.837C239.356 23.0514 238.335 22.584 237.173 22.584C234.654 22.584 232.673 24.7531 232.673 27.4362C232.673 30.129 234.654 32.3073 237.173 32.3073C238.335 32.3073 239.356 31.8305 240.096 31.0544V32.1202H241.417ZM251.023 22.7618H249.535L246.634 30.1395L243.741 22.7713H242.209L245.863 31.7746L245.573 32.4757C245.247 33.2518 244.631 33.5882 244.041 33.5882H243.556V35.0001H244.023C245.335 35.0001 246.374 34.2523 246.929 32.8312L251.023 22.7618ZM234.003 27.4363C234.003 29.3718 235.464 30.9425 237.269 30.9425C238.396 30.9425 239.409 30.3441 239.999 29.4092C240.034 29.3625 240.087 29.2595 240.096 29.0911V25.7722C240.096 25.6366 240.051 25.5486 240.021 25.4908C240.016 25.4809 240.011 25.4719 240.008 25.4636C239.462 24.5008 238.396 23.9398 237.269 23.9398C235.464 23.9398 234.003 25.5106 234.003 27.4363ZM224.45 29.4278C225.013 30.3815 226.061 30.9517 227.188 30.9517C228.984 30.9517 230.446 29.3809 230.446 27.4552C230.446 25.5197 228.984 23.949 227.188 23.949C226.061 23.949 225.048 24.5195 224.458 25.4544C224.423 25.501 224.37 25.6038 224.362 25.7629V29.1192C224.362 29.2782 224.414 29.3717 224.45 29.4278Z" fill="black"/>
<path fill-rule="evenodd" clip-rule="evenodd" d="M141.804 11.7477C142.477 10.9347 142.93 9.80284 142.806 8.67664C141.836 8.71574 140.662 9.32181 139.967 10.1348C139.343 10.8541 138.796 12.006 138.944 13.1098C140.026 13.1933 141.13 12.5611 141.804 11.7477ZM144.23 18.8949C144.256 21.7477 146.687 22.7351 146.812 22.7856L146.816 22.7876L146.813 22.7974C146.771 22.9367 146.383 24.21 145.482 25.5235C144.679 26.6953 143.845 27.8626 142.531 27.8871C141.901 27.8986 141.479 27.7167 141.041 27.5275C140.582 27.3294 140.105 27.1234 139.35 27.1234C138.561 27.1234 138.061 27.3355 137.58 27.5399C137.163 27.7171 136.76 27.8886 136.192 27.9107C134.925 27.9588 133.959 26.644 133.149 25.4762C131.494 23.0882 130.229 18.728 131.928 15.7848C132.771 14.3233 134.28 13.3979 135.916 13.3735C136.622 13.3603 137.305 13.6307 137.903 13.8674C138.36 14.0484 138.767 14.2097 139.097 14.2097C139.393 14.2097 139.788 14.0538 140.25 13.872C140.978 13.5856 141.869 13.2349 142.787 13.3279C143.416 13.3539 145.18 13.5812 146.312 15.2361L146.307 15.2394C146.16 15.3274 144.207 16.4987 144.229 18.8954L144.23 18.8949ZM153.196 10.1216C152.644 10.1837 152.094 10.2617 151.546 10.3553V27.6402H152.758V20.1653C153.309 20.2863 153.987 20.3466 154.795 20.3466C155.689 20.3466 156.514 20.2342 157.271 20.0093C158.028 19.7845 158.681 19.4428 159.231 18.9842C159.783 18.5245 160.228 17.9438 160.534 17.2845C160.851 16.6091 161.011 15.8222 161.011 14.9229C161.011 14.1791 160.895 13.5213 160.663 12.9503C160.441 12.3947 160.112 11.8914 159.696 11.471C159.214 11.0034 158.6 10.6445 157.852 10.394C157.104 10.1431 156.214 10.0177 155.183 10.0177C154.519 10.0145 153.856 10.0492 153.196 10.1216ZM152.758 19.0767C153.051 19.1623 153.377 19.2234 153.739 19.2576C154.099 19.2922 154.486 19.3093 154.899 19.3093C156.446 19.3093 157.645 18.946 158.496 18.2194C159.347 17.4931 159.773 16.4292 159.773 15.0277C159.773 14.3528 159.661 13.7651 159.437 13.2624C159.225 12.7753 158.897 12.3512 158.483 12.0295C158.071 11.7094 157.581 11.4674 157.013 11.3029C156.446 11.1379 155.818 11.0556 155.131 11.0556C154.581 11.0556 154.108 11.0772 153.712 11.1208C153.317 11.1636 152.999 11.2112 152.758 11.2634V19.0767ZM170.677 26.1882C170.66 25.6864 170.651 25.1846 170.651 24.6828H170.652L170.653 19.7772C170.653 19.2062 170.597 18.6311 170.486 18.051C170.381 17.4888 170.166 16.9545 169.853 16.4809C169.544 16.0141 169.119 15.6329 168.577 15.3396C168.036 15.0451 167.334 14.8985 166.474 14.8985C165.856 14.8961 165.24 14.9791 164.644 15.1453C164.059 15.3099 163.491 15.5824 162.942 15.9624L163.329 16.8715C163.771 16.5712 164.253 16.3392 164.76 16.1831C165.284 16.019 165.813 15.9367 166.346 15.9367C167.051 15.9367 167.61 16.0666 168.022 16.3261C168.435 16.586 168.744 16.9057 168.951 17.2865C169.154 17.6603 169.29 18.0693 169.35 18.4934C169.407 18.8671 169.437 19.2446 169.441 19.6228V19.9601C166.965 19.9247 165.112 20.3059 163.883 21.1018C162.653 21.8981 162.039 23.0312 162.039 24.5016C162.04 24.927 162.114 25.3489 162.257 25.7479C162.4 26.1581 162.624 26.5335 162.915 26.8505C163.206 27.1711 163.581 27.4305 164.036 27.6293C164.492 27.8281 165.021 27.9274 165.623 27.9274C166.104 27.9274 166.547 27.8672 166.951 27.7462C167.355 27.6252 167.716 27.4651 168.034 27.2656C168.337 27.0783 168.618 26.8563 168.872 26.6037C169.095 26.384 169.293 26.1404 169.465 25.8771H169.517L169.697 27.6423H170.832C170.746 27.1739 170.694 26.69 170.677 26.1882ZM169.439 20.9719C168.755 20.9554 168.07 20.9813 167.389 21.0493C166.675 21.1185 166.018 21.2704 165.416 21.5038C164.814 21.7376 164.315 22.0794 163.92 22.529C163.525 22.9795 163.327 23.5758 163.327 24.3204C163.327 25.2026 163.576 25.8518 164.074 26.2673C164.572 26.6827 165.131 26.8905 165.75 26.8905C166.249 26.8905 166.696 26.8212 167.091 26.6827C167.487 26.5443 167.831 26.3577 168.123 26.1247C168.406 25.9012 168.654 25.6341 168.858 25.3329C169.048 25.0531 169.2 24.7474 169.309 24.4246C169.396 24.0784 169.438 23.8267 169.439 23.6711V20.9723L169.439 20.9719ZM176.168 23.2814L173.022 15.1829L173.023 15.1825H171.733L176.194 26.7337C176.298 26.9761 176.349 27.1577 176.349 27.2787C176.349 27.3655 176.297 27.5467 176.194 27.8237C175.902 28.5507 175.571 29.1694 175.201 29.6802C174.831 30.1905 174.492 30.6015 174.182 30.9131C173.821 31.2764 173.452 31.5705 173.073 31.7953C172.695 32.0202 172.351 32.2018 172.041 32.3403L172.454 33.3525C172.592 33.3007 172.863 33.1753 173.266 32.9757C173.671 32.7765 174.114 32.4609 174.595 32.0283C175.018 31.6535 175.395 31.2264 175.717 30.7567C176.053 30.272 176.383 29.714 176.71 29.0827C177.064 28.3893 177.387 27.6789 177.677 26.9541C178.028 26.0808 178.367 25.2027 178.696 24.32L182.28 15.1829H180.991L178.05 23.2288C177.861 23.7307 177.689 24.2202 177.535 24.696C177.38 25.1717 177.243 25.5998 177.122 25.981H177.071C176.951 25.5819 176.814 25.1452 176.659 24.6695C176.504 24.1938 176.34 23.7311 176.168 23.2814Z" fill="black"/>
<path fill-rule="evenodd" clip-rule="evenodd" d="M29.1915 11.7904H34.2621C35.9593 11.7904 37.2375 12.2562 37.9582 13.1368C38.6143 13.9388 38.8316 15.0839 38.6047 16.5413C38.1013 19.8725 36.1735 21.5536 32.8334 21.5536H31.2282C30.882 21.5536 30.5861 21.8158 30.5328 22.1728L29.9797 25.8202C29.9255 26.1772 29.6304 26.4394 29.2835 26.4394H26.8627C26.6025 26.4394 26.4038 26.1988 26.4445 25.932L28.4953 12.4088C28.5494 12.0526 28.8445 11.7904 29.1915 11.7904ZM31.8355 18.6222C33.1797 18.6222 34.5698 18.6222 34.8471 16.7299C34.9487 16.0652 34.8672 15.584 34.601 15.2601C34.1546 14.7172 33.2909 14.7172 32.3752 14.7172H32.0245C31.8169 14.7172 31.639 14.8746 31.6071 15.0882L31.0703 18.6222H31.8355Z" fill="black"/>
<path fill-rule="evenodd" clip-rule="evenodd" d="M46.9908 16.6683H49.419C49.6785 16.6683 49.8764 16.9097 49.8349 17.1757L48.5226 25.8192C48.4677 26.1762 48.1741 26.4384 47.8264 26.4384H45.6392C45.3804 26.4384 45.1817 26.1978 45.2225 25.9295L45.3308 25.2277C45.3308 25.2277 44.1319 26.6736 41.9699 26.6736C40.7102 26.6736 39.6514 26.2957 38.9115 25.3889C38.1048 24.4026 37.7749 22.9884 38.0069 21.5094C38.4533 18.5444 40.745 16.4308 43.4283 16.4308C44.5982 16.4308 45.7704 16.6961 46.2961 17.4895L46.4659 17.7455L46.5734 17.0392C46.6053 16.8256 46.7839 16.6683 46.9908 16.6683ZM43.2947 23.9948C44.699 23.9948 45.8 23.0263 46.0343 21.5835C46.1403 20.8849 45.9935 20.251 45.6235 19.7968C45.2543 19.3473 44.6938 19.109 44.0043 19.109C42.6215 19.109 41.5019 20.1091 41.2832 21.5396C41.169 22.2413 41.3055 22.8713 41.6643 23.3139C42.0261 23.7596 42.5896 23.9948 43.2947 23.9948Z" fill="black"/>
<path d="M62.3514 16.6681H59.9113C59.6785 16.6681 59.4598 16.7884 59.3278 16.9896L55.9625 22.1454L54.536 17.1909C54.4463 16.8809 54.1712 16.6681 53.8598 16.6681H51.462C51.1706 16.6681 50.9682 16.9642 51.0609 17.2495L53.7486 25.4527L51.2218 29.1626C51.0231 29.4548 51.2233 29.8566 51.5665 29.8566H54.0036C54.2349 29.8566 54.4514 29.7394 54.5827 29.542L62.6983 17.3582C62.8926 17.0668 62.6931 16.6681 62.3514 16.6681Z" fill="black"/>
<path opacity="0.64" fill-rule="evenodd" clip-rule="evenodd" d="M65.3583 11.7902H70.4297C72.1268 11.7902 73.4043 12.2559 74.1242 13.1365C74.7804 13.9385 74.9991 15.0836 74.7715 16.541C74.2673 19.8723 72.3403 21.5533 68.9995 21.5533H67.395C67.0488 21.5533 66.7529 21.8155 66.6995 22.1725L66.1175 26.0058C66.0797 26.2556 65.8729 26.4392 65.6312 26.4392H63.0287C62.77 26.4392 62.5713 26.1986 62.6121 25.9318L64.6628 12.4086C64.717 12.0523 65.0121 11.7902 65.3583 11.7902ZM68.003 18.622C69.3479 18.622 70.7381 18.622 71.0147 16.7296C71.1162 16.0649 71.0354 15.5837 70.7692 15.2599C70.3229 14.717 69.4584 14.717 68.5435 14.717H68.1928C67.9844 14.717 67.808 14.8743 67.7761 15.0879L67.2386 18.622H68.003Z" fill="black"/>
<path opacity="0.64" fill-rule="evenodd" clip-rule="evenodd" d="M83.1593 16.6683H85.586C85.8462 16.6683 86.0449 16.9097 86.0049 17.1757L84.6918 25.8192C84.6377 26.1762 84.3426 26.4384 83.9964 26.4384H81.8099C81.5497 26.4384 81.351 26.1978 81.3917 25.9295L81.5 25.2277C81.5 25.2277 80.3011 26.6736 78.1391 26.6736C76.8794 26.6736 75.8221 26.2957 75.0807 25.3889C74.274 24.4026 73.9456 22.9884 74.1769 21.5094C74.6232 18.5444 76.9143 16.4308 79.5975 16.4308C80.7675 16.4308 81.9389 16.6961 82.4646 17.4895L82.6351 17.7455L82.7426 17.0392C82.7738 16.8256 82.951 16.6683 83.1593 16.6683ZM79.4618 23.9948C80.8661 23.9948 81.9686 23.0263 82.2014 21.5835C82.3089 20.8849 82.1621 20.251 81.7907 19.7968C81.4214 19.3473 80.8609 19.109 80.1714 19.109C78.7886 19.109 77.6706 20.1091 77.4504 21.5396C77.3377 22.2413 77.4726 22.8713 77.8314 23.3139C78.1933 23.7596 78.7582 23.9948 79.4618 23.9948Z" fill="black"/>
<path opacity="0.64" d="M88.4487 12.1609L86.3675 25.9316C86.3268 26.1984 86.5255 26.439 86.7842 26.439H88.8765C89.2243 26.439 89.5193 26.1768 89.5727 25.8197L91.625 12.2974C91.6658 12.0305 91.4671 11.7892 91.2083 11.7892H88.8654C88.6585 11.79 88.4806 11.9473 88.4487 12.1609Z" fill="black"/>
<path opacity="0.64" d="M17.0884 12.4978C17.0676 12.6358 17.0439 12.7769 17.0172 12.9219C16.1 17.8193 12.9623 19.5112 8.95489 19.5112H6.91449C6.4244 19.5112 6.01143 19.8813 5.93506 20.3841L4.89039 27.2748L4.59456 29.2281C4.54488 29.5581 4.78956 29.8558 5.10985 29.8558H8.72876C9.1573 29.8558 9.52134 29.5319 9.58881 29.0923L9.6244 28.9011L10.3058 24.4039L10.3495 24.1572C10.4162 23.7161 10.781 23.3922 11.2096 23.3922H11.7508C15.257 23.3922 18.0018 21.9117 18.804 17.6273C19.1391 15.8375 18.9656 14.3431 18.0789 13.2921C17.8105 12.9751 17.4776 12.7122 17.0884 12.4978Z" fill="black"/>
<path d="M16.1292 12.1001C15.9891 12.0577 15.8445 12.0191 15.6962 11.9844C15.5472 11.9505 15.3944 11.9204 15.2372 11.8942C14.6871 11.8016 14.0843 11.7577 13.4385 11.7577H7.98757C7.85338 11.7577 7.72585 11.7893 7.61167 11.8464C7.36033 11.9721 7.17349 12.2196 7.12826 12.5226L5.96867 20.1614L5.9353 20.3842C6.01167 19.8815 6.42464 19.5113 6.91473 19.5113H8.95514C12.9626 19.5113 16.1003 17.8187 17.0174 12.9221C17.0448 12.7771 17.0678 12.636 17.0886 12.498C16.8565 12.37 16.6052 12.2605 16.3346 12.1672C16.2678 12.144 16.1989 12.1217 16.1292 12.1001Z" fill="black"/>
<path opacity="0.81" d="M7.12809 12.5229C7.17332 12.2199 7.36016 11.9723 7.6115 11.8474C7.72642 11.7904 7.8532 11.7587 7.9874 11.7587H13.4384C14.0842 11.7587 14.6869 11.8027 15.2371 11.8952C15.3943 11.9215 15.547 11.9515 15.696 11.9855C15.8443 12.0202 15.9889 12.0587 16.129 12.1011C16.1987 12.1227 16.2677 12.1451 16.3351 12.1674C16.6058 12.2607 16.8571 12.371 17.0892 12.4982C17.362 10.6884 17.0869 9.45617 16.1461 8.34036C15.1088 7.11196 13.2367 6.58606 10.8412 6.58606H3.88657C3.39723 6.58606 2.9798 6.9562 2.90418 7.45974L0.00742124 26.5566C-0.0496687 26.9344 0.230591 27.2753 0.596856 27.2753H4.89046L5.9685 20.1617L7.12809 12.5229Z" fill="black"/>
</svg>
